PathFileType	4	(X/Y/Z)	RBDS05\RBDS05runT45.trc
DataRate	CameraRate	NumFrames	NumMarkers	Units	OrigDataRate	OrigDataStartFrame	OrigNumFrames
150.000000	150.000000	5	32	mm	150.000000	3375	4500
Frame#	Time	L.ASIS			L.Heel.Bottom			L.Heel.Lateral			L.Heel.Top			L.Iliac.Crest			L.MT1			L.MT5			L.PSIS			L.Shank.Bottom.Lateral			L.Shank.Bottom.Medial			L.Shank.Top.Lateral			L.Shank.Top.Medial			L.Thigh.Bottom.Lateral			L.Thigh.Bottom.Medial			L.Thigh.Top.Lateral			L.Thigh.Top.Medial			R.ASIS			R.ASY			R.Heel.Bottom			R.Heel.Lateral			R.Heel.Top			R.Iliac.Crest			R.MT5			R.PSIS			R.Shank.Bottom.Lateral			R.Shank.Bottom.Medial			R.Shank.Top.Lateral			R.Shank.Top.Medial			R.Thigh.Bottom.Lateral			R.Thigh.Bottom.Medial			R.Thigh.Top.Lateral			R.Thigh.Top.Medial			
		X1	Y1	Z1	X2	Y2	Z2	X3	Y3	Z3	X4	Y4	Z4	X5	Y5	Z5	X6	Y6	Z6	X7	Y7	Z7	X8	Y8	Z8	X9	Y9	Z9	X10	Y10	Z10	X11	Y11	Z11	X12	Y12	Z12	X13	Y13	Z13	X14	Y14	Z14	X15	Y15	Z15	X16	Y16	Z16	X17	Y17	Z17	X18	Y18	Z18	X19	Y19	Z19	X20	Y20	Z20	X21	Y21	Z21	X22	Y22	Z22	X23	Y23	Z23	X24	Y24	Z24	X25	Y25	Z25	X26	Y26	Z26	X27	Y27	Z27	X28	Y28	Z28	X29	Y29	Z29	X30	Y30	Z30	X31	Y31	Z31	X32	Y32	Z32	

3376	22.5	2255.518450116844	904.4956397480781	859.415650735998	1829.261433675898	56.95000451358888	936.2283717824956	1864.363392675103	69.92494491263847	894.3611029810368	1848.338075238869	103.6156652927385	937.8577398940849	2195.309092585258	971.7952554720803	827.4426455622998	2032.101120866297	45.09670050003744	976.4413666222302	2004.758572215551	41.48789913784382	874.3692404273779	2111.920589842566	959.2764605557546	942.987786297947	1959.246678447239	171.3670015585353	873.2911916932129	1924.266963841263	196.0173818132508	900.825973540806	1996.11557064232	239.9694388626755	851.6326018779374	1962.069102476464	268.9171031643093	880.1853074405154	2152.102561214334	556.742017295877	811.239845522642	2090.678522087299	550.2228062913255	849.9540910224416	2135.618427197465	665.9817118919206	809.8243160600859	2081.952067263234	660.5292456355709	852.3060779658036	2277.753495426197	913.880333383069	1082.496409460561	-188410390860.5211	-13904201559.05513	33577917929.9241	1957.580473335138	367.0449205976043	1023.489961323784	1981.436746813844	345.2553747440202	1060.41246000542	2004.396500778929	374.9175771252148	1022.745145520308	2229.360342523651	963.1864012554564	1120.153032038231	2032.206520857601	199.2550747127943	1079.438786330651	2121.90722901327	960.7617912100848	1031.799375557624	2115.508002248605	367.7828256218244	1080.772659966963	2097.132487606232	406.6430816503513	1047.307588561894	2180.612303521786	414.1215887529888	1095.183936987686	2162.30299730099	450.5734295878747	1060.544866723811	2370.994858143752	585.7245976412614	1134.454860135876	2317.555959178192	548.7495606560299	1100.248447004229	2301.796752005179	670.5311072061996	1149.13549468494	2249.055699732563	632.7445479137047	1121.177832065051	
3377	22.50666666666667	2257.375689899015	907.534994473385	859.8843615343627	1802.62022327889	67.62716856305202	935.9718803224423	1838.287289304868	77.97067273398655	894.0433144861901	1824.196523101828	112.9320316096073	937.1676952058384	2201.978895695673	976.8539138704999	827.7144727676765	2002.741612173207	44.29010209851114	976.48954943481	1974.897529533865	41.46229883662723	874.3523716522723	2114.019185283779	963.8519179123022	942.4166124439411	1933.79309279323	179.2141845179339	872.4345306833372	1899.954173745715	203.4728990935145	901.5457154086463	1970.80368366643	247.9108352430098	851.4341984501058	1937.863503526936	276.4415718434832	881.5074784289901	2135.629687551988	562.5735242151349	811.6705704854147	2074.819705545004	559.1688402762653	851.6253985284038	2125.129235494575	672.5453989933271	810.9242171993322	2072.352747630949	669.7484108402842	854.769564690885	2279.254495614323	919.7115400441754	1082.176663185534	-188628796158.6967	-13920317208.56527	33616841098.20981	1976.046414398726	344.9774120203664	1021.759845149794	2001.589886326829	326.2515951984602	1059.041961293131	2022.064629389125	356.9762946614259	1020.672857820169	2230.720018039855	969.6461483182561	1119.771759531921	2064.413838211305	185.6750950874737	1082.262204303165	2123.42849351958	966.2589632771983	1031.320101738234	2134.129041199469	359.6382898314898	1079.344790051295	2113.019282764547	396.4217662757415	1045.057418629631	2195.722908653042	410.9127202052896	1092.795840292883	2174.836497760733	445.3531622776931	1057.48964559551	2379.228019354934	596.7890568228805	1131.065230474604	2326.064091143192	558.4454292692379	1098.073628249217	2308.069588335764	679.7366103836251	1147.319666153738	2256.024349025337	640.7280235539416	1120.064426327472	
3378	22.51333333333334	2259.339635944216	910.8286190953419	860.2194253157654	1777.801684770943	80.40987677349443	935.6270866112163	1813.859189460762	87.69993430478512	893.6271299523418	1802.223106605525	123.8872434045487	936.3541172028896	2209.109757382403	981.8957283466815	828.0267761238796	1974.060512229814	43.74817210828071	976.3050747035031	1945.635636508001	41.93208593103111	874.1258475609103	2116.20601989151	968.5521468023534	941.8876291237682	1909.953527446047	188.2270123569449	871.5363086056935	1877.288070583282	211.8629052392728	902.3627637167272	1946.932036436422	257.1837417657741	851.4038020474893	1915.14325876108	285.0526067964714	883.1772827490395	2119.773943755155	569.6424095490152	812.443521337301	2059.941917423515	569.3058427635603	853.9121734054372	2115.153140255353	680.0414710025793	812.2537806406281	2063.634793083544	679.812146618026	857.6601960304504	2280.936224542904	925.5943598756076	1081.707797056664	-188847370175.2588	-13936445305.82799	33655794334.43193	1996.049308249469	322.4396252916163	1019.702954071385	2022.903855742197	306.9403508043621	1057.467802006577	2040.963551448304	338.4786550730043	1018.361598333248	2232.192938724216	976.1887304194471	1119.328529353993	2097.351468439286	172.7597507901665	1085.014447543398	2125.170301841986	971.8068594759038	1030.820542193843	2153.051700190882	351.1221396036192	1077.837840110199	2129.398564562171	385.6141755835841	1042.708322215091	2210.689286286988	407.1487357141476	1090.416817164698	2187.426540547137	439.372016153496	1054.409426140946	2386.558507199672	607.354892388072	1127.717071032957	2333.510122768106	567.7249942134279	1096.172693585292	2313.827198333295	688.689522504142	1145.408389164992	2262.327365644882	648.6187622727102	1119.006538813251	
3379	22.52	2261.308870629386	914.3102680229671	860.3839798493414	1755.006116292227	95.17427475328893	935.2458029012532	1791.192885932628	99.0853355566958	893.1409006950986	1782.510512906553	136.358958657797	935.4480663410559	2216.28219549477	986.8357321918608	828.3864405523267	1946.169366333273	43.68253080661337	975.8182020392865	1917.075054860573	43.11840189795439	873.6435896765967	2118.41876462358	973.3117128945745	941.4137900892332	1887.868116875868	198.2220072830517	870.6211690572791	1856.376141663944	221.0505610179482	903.2256451697583	1924.70842496028	267.5620643431678	851.5476670173484	1894.085114160665	294.5718814098916	885.1205487640799	2104.824947448492	577.7060661318566	813.5614582593732	2046.254680349336	580.3510062419325	856.7128577305707	2105.874787128776	688.2487126716486	813.7584317526918	2055.908657232313	690.4686775970533	860.8352304609416	2282.724093396504	931.3652991851454	1081.084955718251	-189066112975.3498	-13952585855.64874	33694777650.19966	2017.679973237939	299.6449244253943	1017.503907248523	2045.470913951647	287.4326197189829	1055.826229825209	2061.192193541011	319.5851742092404	1015.983711772218	2233.662324933062	982.6180086102618	1118.847715028514	2130.977056373828	160.5298191293858	1087.618039902951	2127.082072674376	977.2785229085262	1030.303457950729	2172.362576452474	342.2200379328829	1076.333368831312	2146.382871711553	374.2546887473289	1040.386577833137	2225.626283411712	402.7315139266027	1088.148232951216	2200.212782504675	432.576924515796	1051.435455853423	2392.973095491597	617.1536394096394	1124.475346240719	2339.908276800528	576.3194386373891	1094.54387238113	2319.020663404151	697.1457846145693	1143.405352418704	2267.922601241567	656.1655152451533	1117.94950439677	
3380	22.52666666666667	2263.199494148721	917.9047970520897	860.3627757412655	1734.321523162374	111.7034810495085	934.9178861464421	1770.305983585318	112.040378214437	892.6491819606466	1765.022796549519	150.1665164438248	934.5227697540398	2223.093712774132	991.6272413476541	828.7912910290302	1919.153961574768	44.3191217598361	974.978393651909	1889.293647739268	45.25469335674159	872.8885764847339	2120.608232100913	978.0721259946345	941.0027794651496	1867.584819558914	208.9903208449108	869.731853531183	1837.230922311978	230.8938523332263	904.0936637686825	1904.259487943743	278.7793232439977	851.8656908285408	1874.781855605796	304.8021557842158	887.246185209171	2091.046694247655	586.461257342213	814.9975945738935	2033.916543235047	591.9674793125192	859.8723658806966	2097.460685703245	696.8961195753775	815.362461231755	2049.238161713894	701.4273040888199	864.1142212982951	2284.54775263564	936.8750802836537	1080.318622175972	-189285024624.1119	-13968738862.83301	33733791057.12225	2040.988988006677	276.7945419569422	1015.332203088619	2069.360176395724	267.8392771782536	1054.236621091499	2082.807303669515	300.4600079497244	1013.697832144411	2235.044408511892	988.7471852967647	1118.35383442646	2165.255862864466	149.0086921993429	1089.995542767443	2129.114634403434	982.55980642564	1029.77792446805	2192.126959773187	332.9414395997083	1074.906830219545	2164.050022657293	362.3983862556144	1038.207230810897	2240.632330665176	397.5981973770927	1086.083581247596	2213.302577803619	424.9486215212784	1048.691411424011	2398.441638295318	625.9412960264439	1121.402268041676	2345.25605259425	583.9985264429588	1093.169093477374	2323.584618115514	704.8773336410347	1141.327644849575	2272.75585257316	663.14250253893	1116.837583458934	
